<svg id="Buyers" xmlns="http://www.w3.org/2000/svg" width="22.386" height="23.856" viewBox="0 0 22.386 23.856">
  <g id="Group_21" data-name="Group 21">
    <path id="Path_659" data-name="Path 659" d="M-425.373-11a6.887,6.887,0,0,1,1.125.412,2.894,2.894,0,0,1,1.528,2.623c.016,1.25.007,2.5,0,3.75a3.025,3.025,0,0,1-3.048,3.045c-1.242.005-2.485,0-3.727.007a.532.532,0,0,0-.337.142c-.944.944-1.879,1.9-2.818,2.848a.674.674,0,0,1-1.026.062.963.963,0,0,1-.217-.561c-.023-.821-.01-1.644-.01-2.5h-1.122a2.973,2.973,0,0,1-2.308-1.026,2.885,2.885,0,0,1-.763-1.95q-.014-1.933,0-3.866a3.035,3.035,0,0,1,2.5-2.943A1.323,1.323,0,0,0-435.44-11Zm-5.01,4.24c1.383,0,2.765,0,4.148,0a.7.7,0,0,0,.721-.7.7.7,0,0,0-.722-.7q-4.171,0-8.342,0a.855.855,0,0,0-.413.125.658.658,0,0,0-.28.751.7.7,0,0,0,.717.516Q-432.469-6.758-430.383-6.76Zm-.7,1.4H-434.5a.713.713,0,0,0-.8.692.715.715,0,0,0,.806.705h1.117q2.84,0,5.679,0a.716.716,0,0,0,.708-.393.7.7,0,0,0-.672-1.005C-428.8-5.364-429.941-5.362-431.082-5.362Z" transform="translate(441.6 11)" fill="#9b9b9b"/>
    <path id="Path_660" data-name="Path 660" d="M-381.354,294.085a.879.879,0,0,1-.519-.939c.024-.674-.007-1.351.011-2.026a3.393,3.393,0,0,1,.942-2.263,3.9,3.9,0,0,0,3.247,1.679,3.9,3.9,0,0,0,3.245-1.677c.065.072.128.135.182.2a3.437,3.437,0,0,1,.766,2.15c0,.644-.017,1.289.007,1.933a.88.88,0,0,1-.519.939Z" transform="translate(388.866 -270.229)" fill="#9b9b9b"/>
    <path id="Path_661" data-name="Path 661" d="M-225.722,294.273a20.01,20.01,0,0,0,.032-3.8,4.032,4.032,0,0,0,4.714-1.416c.05.055.108.112.158.175a3.456,3.456,0,0,1,.781,2.192c0,.636-.017,1.274.007,1.909a.879.879,0,0,1-.519.939Z" transform="translate(242.415 -270.417)" fill="#9b9b9b"/>
    <path id="Path_662" data-name="Path 662" d="M-493.894,294.265a.879.879,0,0,1-.52-.938c.025-.667-.005-1.335.012-2a3.394,3.394,0,0,1,.932-2.275,4.037,4.037,0,0,0,4.715,1.417,20.4,20.4,0,0,0,.034,3.8Z" transform="translate(494.416 -270.408)" fill="#9b9b9b"/>
    <path id="Path_663" data-name="Path 663" d="M-240.418,210.993a2.566,2.566,0,0,1,2.562,2.587,2.567,2.567,0,0,1-2.587,2.538,2.569,2.569,0,0,1-2.539-2.587A2.573,2.573,0,0,1-240.418,210.993Z" transform="translate(258.603 -197.202)" fill="#9b9b9b"/>
    <path id="Path_664" data-name="Path 664" d="M-462.886,213.582a2.571,2.571,0,0,1-2.572,2.555,2.57,2.57,0,0,1-2.554-2.572,2.568,2.568,0,0,1,2.571-2.553A2.568,2.568,0,0,1-462.886,213.582Z" transform="translate(469.652 -197.219)" fill="#9b9b9b"/>
    <path id="Path_665" data-name="Path 665" d="M-352.924,211.012a2.564,2.564,0,0,1,2.561,2.563,2.564,2.564,0,0,1-2.563,2.561,2.567,2.567,0,0,1-2.562-2.563A2.568,2.568,0,0,1-352.924,211.012Z" transform="translate(364.119 -197.219)" fill="#9b9b9b"/>
  </g>
</svg>
