<svg xmlns="http://www.w3.org/2000/svg" width="12.489" height="13.624" viewBox="0 0 12.489 13.624"><defs><style>.a{fill:#9b9b9b;}</style></defs><path class="a" d="M4.967,114.9a2.416,2.416,0,0,1-2.413-2.413v-5.819H1.561A1.562,1.562,0,0,0,0,108.229v7.664a1.562,1.562,0,0,0,1.561,1.561h7.1a1.562,1.562,0,0,0,1.561-1.561V114.9Zm0,0" transform="translate(0 -103.83)"/><path class="a" d="M137.083,1.561A1.561,1.561,0,0,0,135.522,0h-5.961A1.561,1.561,0,0,0,128,1.561v7.1a1.561,1.561,0,0,0,1.561,1.561h5.961a1.561,1.561,0,0,0,1.561-1.561Zm0,0" transform="translate(-124.594)"/></svg>