<svg xmlns="http://www.w3.org/2000/svg" width="13.333" height="14.942" viewBox="0 0 13.333 14.942"><defs><style>.a{fill:#9b9b9b;}</style></defs><g transform="translate(0.003 0.002)"><path class="a" d="M222.782,154.7a.368.368,0,0,0-.384.35v6.614a.386.386,0,0,0,.769,0v-6.614A.368.368,0,0,0,222.782,154.7Zm0,0" transform="translate(-213.851 -149.291)"/><path class="a" d="M104.782,154.7a.368.368,0,0,0-.384.35v6.614a.386.386,0,0,0,.769,0v-6.614A.368.368,0,0,0,104.782,154.7Zm0,0" transform="translate(-100.387 -149.291)"/><path class="a" d="M1.089,4.447v8.621A1.838,1.838,0,0,0,1.653,14.4a1.986,1.986,0,0,0,1.374.541H10.3a1.985,1.985,0,0,0,1.374-.541,1.838,1.838,0,0,0,.564-1.331V4.447a1.346,1.346,0,0,0,1.08-1.465,1.43,1.43,0,0,0-1.456-1.164H9.893V1.381A1.315,1.315,0,0,0,9.449.4,1.591,1.591,0,0,0,8.37,0H4.956A1.591,1.591,0,0,0,3.878.4a1.315,1.315,0,0,0-.444.981v.437H1.465A1.43,1.43,0,0,0,.009,2.982a1.346,1.346,0,0,0,1.08,1.465ZM10.3,14.24H3.026a1.156,1.156,0,0,1-1.169-1.172V4.478h9.612v8.591A1.156,1.156,0,0,1,10.3,14.24ZM4.2,1.381A.644.644,0,0,1,4.421.895.78.78,0,0,1,4.956.7H8.37a.78.78,0,0,1,.535.2.644.644,0,0,1,.218.486v.437H4.2ZM1.465,2.518h10.4a.663.663,0,0,1,.692.63.663.663,0,0,1-.692.63H1.465a.663.663,0,0,1-.692-.63A.663.663,0,0,1,1.465,2.518Zm0,0" transform="translate(0 0)"/><path class="a" d="M163.782,154.7a.368.368,0,0,0-.384.35v6.614a.386.386,0,0,0,.769,0v-6.614A.368.368,0,0,0,163.782,154.7Zm0,0" transform="translate(-157.119 -149.291)"/></g></svg>