<svg xmlns="http://www.w3.org/2000/svg" width="13.132" height="13.062" viewBox="0 0 13.132 13.062"><defs><style>.a{fill:#9b9b9b;}</style></defs><g transform="translate(0 -0.269)"><path class="a" d="M12.755,26.458a.344.344,0,0,0-.344.344v3.056a1.034,1.034,0,0,1-1.033,1.033H1.721A1.034,1.034,0,0,1,.688,29.858V20.889a1.034,1.034,0,0,1,1.033-1.033H4.777a.344.344,0,0,0,0-.688H1.721A1.723,1.723,0,0,0,0,20.889v8.969a1.723,1.723,0,0,0,1.721,1.721h9.658A1.723,1.723,0,0,0,13.1,29.858V26.8A.344.344,0,0,0,12.755,26.458Zm0,0" transform="translate(0 -18.249)"/><path class="a" d="M156.367,37.354l5.026-5.026,1.621,1.621-5.026,5.026Zm0,0" transform="translate(-150.985 -30.956)"/><path class="a" d="M132.543,199.01l1.791-.5-1.3-1.295Zm0,0" transform="translate(-127.981 -190.172)"/><path class="a" d="M318.109.52a.862.862,0,0,0-1.217,0l-.365.365,1.621,1.621.365-.365a.861.861,0,0,0,0-1.217Zm0,0" transform="translate(-305.633)"/></g></svg>