<svg id="Leads" xmlns="http://www.w3.org/2000/svg" width="22.186" height="22.856" viewBox="0 0 22.186 22.856">
  <g id="Group_15" data-name="Group 15" transform="translate(0 0)">
    <path id="Path_646" data-name="Path 646" d="M98.682,84.99l-3.97.61a.472.472,0,0,0-.248.813l.944.871A43.007,43.007,0,0,1,81.565,99.006a32.8,32.8,0,0,0,15.813-9.9l.763.7a.472.472,0,0,0,.79-.312l.293-4.006A.472.472,0,0,0,98.682,84.99Z" transform="translate(-81.565 -84.985)" fill="#9b9b9b"/>
    <path id="Path_647" data-name="Path 647" d="M.808,0h2a.808.808,0,0,1,.808.808v8.98a.808.808,0,0,1-.808.808h-2A.808.808,0,0,1,0,9.788V.808A.808.808,0,0,1,.808,0Z" transform="translate(7.47 12.26)" fill="#9b9b9b"/>
    <path id="Path_648" data-name="Path 648" d="M.808,0h2a.808.808,0,0,1,.808.808V5.967a.808.808,0,0,1-.808.808h-2A.808.808,0,0,1,0,5.967V.808A.808.808,0,0,1,.808,0Z" transform="translate(1.908 16.081)" fill="#9b9b9b"/>
    <path id="Path_649" data-name="Path 649" d="M.808,0h2a.808.808,0,0,1,.808.808v12.74a.808.808,0,0,1-.808.808h-2A.808.808,0,0,1,0,13.548V.808A.808.808,0,0,1,.808,0Z" transform="translate(13.013 8.499)" fill="#9b9b9b"/>
    <path id="Path_650" data-name="Path 650" d="M.808,0h2a.808.808,0,0,1,.808.808V19.25a.808.808,0,0,1-.808.808h-2A.808.808,0,0,1,0,19.25V.808A.808.808,0,0,1,.808,0Z" transform="translate(18.569 2.797)" fill="#9b9b9b"/>
  </g>
</svg>
