<svg id="Publishers_List" data-name="Publishers List" xmlns="http://www.w3.org/2000/svg" width="24.044" height="24.048" viewBox="0 0 24.044 24.048">
  <path id="Path_657" data-name="Path 657" d="M16.375,97.047c.967-1.916,3.82-7.557,3.82-7.557h1.159L20.763,93.2a.905.905,0,0,0,1.766.385L23.64,89.6A1.8,1.8,0,0,0,21.9,87.313h.166l.944-2.7A5.559,5.559,0,0,0,27.431,83.4l.116-.1a.881.881,0,0,0,.149-1.21.867.867,0,0,0-1.241-.138l-.132.11a3.85,3.85,0,0,1-.726.476,2.508,2.508,0,0,1-2.962-.577,2.055,2.055,0,0,0-3.037.029l0-.008a7.117,7.117,0,0,1-3.565,2.356.865.865,0,0,0-.473,1.326l-1.815-1.815a.635.635,0,0,0-.9,0L10.227,86.47a.635.635,0,0,0,0,.9l3.612,3.612a.636.636,0,0,0,.9,0l2.622-2.622a.635.635,0,0,0,0-.9l-1.578-1.578a.865.865,0,0,0,.655.14c.026,0,.053-.011.079-.019a8.9,8.9,0,0,0,2.028-.867h0l-.567,2.178h0l-3.417,8.961a.967.967,0,0,0,.774,1.3l.023,0A.989.989,0,0,0,16.375,97.047Z" transform="translate(-10.041 -77.819)" fill="#9b9b9b"/>
  <path id="Path_658" data-name="Path 658" d="M148.429,223.261l.915.915-2.928,2.928-2.077-2.077-9.65,9.65,1.4,1.4,8.248-8.248,2.077,2.077,4.33-4.33,1.047,1.047.848-4.212Z" transform="translate(-128.597 -212.031)" fill="#9b9b9b"/>
  <circle id="Ellipse_32" data-name="Ellipse 32" cx="1.743" cy="1.743" r="1.743" transform="translate(10.613)" fill="#9b9b9b"/>
</svg>
